<?xml version="1.0" standalone="no"?>
<!DOCTYPE svg PUBLIC "-//W3C//DTD SVG 20010904//EN"
 "http://www.w3.org/TR/2001/REC-SVG-20010904/DTD/svg10.dtd">
<svg version="1.0" xmlns="http://www.w3.org/2000/svg"
 width="700.000000pt" height="700.000000pt" viewBox="0 0 700.000000 700.000000"
 preserveAspectRatio="xMidYMid meet">
<metadata>
Created by potrace 1.14, written by Peter Selinger 2001-2017
</metadata>
<g transform="translate(0.000000,700.000000) scale(0.100000,-0.100000)"
fill="#000000" stroke="none">
<path d="M3289 6776 c-2 -2 -42 -7 -89 -10 -363 -27 -766 -139 -1130 -313
-410 -197 -814 -513 -1090 -853 -25 -30 -47 -57 -50 -60 -12 -11 -120 -160
-167 -230 -61 -91 -150 -245 -203 -349 -79 -158 -198 -472 -226 -596 -1 -5 -9
-37 -18 -70 -16 -61 -51 -238 -61 -310 -4 -22 -8 -50 -10 -61 -27 -165 -27
-665 -1 -834 2 -14 7 -47 11 -75 29 -218 131 -590 204 -750 5 -11 28 -63 51
-115 46 -106 110 -227 178 -340 48 -80 141 -222 151 -230 4 -3 15 -18 24 -33
10 -16 27 -38 37 -50 10 -12 52 -62 93 -112 341 -409 799 -738 1307 -939 183
-72 431 -143 595 -171 17 -3 43 -8 58 -11 39 -8 55 -10 262 -34 74 -8 562 -6
605 3 14 3 54 8 89 12 35 3 67 7 70 9 3 2 31 7 61 10 216 26 609 148 864 269
180 86 420 230 551 331 257 199 439 375 613 595 72 90 242 334 242 347 0 3 8
18 19 32 63 90 216 422 284 622 43 125 101 360 123 496 3 20 7 45 9 55 2 10 7
49 10 86 4 37 11 91 15 118 8 53 6 576 -3 610 -2 11 -8 47 -11 80 -6 53 -27
182 -41 255 -75 387 -256 817 -488 1165 -33 50 -70 102 -81 117 -12 14 -32 41
-46 59 -106 141 -300 348 -435 464 -38 33 -75 65 -81 70 -6 6 -26 21 -44 35
-18 14 -49 38 -69 54 -177 141 -516 331 -766 429 -115 45 -331 114 -411 132
-11 2 -50 11 -89 19 -84 19 -222 43 -290 51 -27 3 -70 8 -95 11 -51 7 -525 16
-531 10z"/>
</g>
</svg>
